<svg width="11" height="15" viewBox="0 0 11 15" fill="none" xmlns="http://www.w3.org/2000/svg">
<path d="M5.39474 0.147802C5.35505 0.101449 5.3058 0.0642371 5.25036 0.0387238C5.19493 0.0132105 5.13462 0 5.0736 0C5.01258 0 4.95227 0.0132105 4.89684 0.0387238C4.8414 0.0642371 4.79215 0.101449 4.75246 0.147802C3.63701 1.45245 0 5.96286 0 9.30392C0 12.4174 1.96031 14.3773 5.07342 14.3773C8.18653 14.3773 10.1468 12.4174 10.1468 9.30392C10.1468 5.96286 6.50984 1.45245 5.39474 0.147802ZM5.63714 12.5453C5.56942 12.5454 5.50266 12.5293 5.44247 12.4983C5.38229 12.4672 5.33043 12.4222 5.29128 12.367C5.25212 12.3117 5.22681 12.2479 5.21747 12.1808C5.20813 12.1137 5.21503 12.0454 5.23761 11.9816C5.26644 11.8983 5.32081 11.8262 5.39299 11.7756C5.46516 11.725 5.55146 11.6984 5.6396 11.6997C6.19923 11.6985 6.73558 11.4757 7.1313 11.0799C7.52701 10.6842 7.74985 10.1479 7.75106 9.58825C7.74978 9.50011 7.77632 9.4138 7.82693 9.34163C7.87754 9.26945 7.94962 9.21508 8.03292 9.18625C8.09676 9.16368 8.1651 9.15677 8.23216 9.16611C8.29923 9.17545 8.36308 9.20076 8.41832 9.23992C8.47357 9.27907 8.5186 9.33093 8.54963 9.39111C8.58066 9.4513 8.59678 9.51806 8.59663 9.58578C8.5958 10.3704 8.28372 11.1227 7.72889 11.6775C7.17406 12.2324 6.42179 12.5444 5.63714 12.5453Z" fill="#7E19DF"/>
</svg>
