<svg viewBox="0 0 44 44" fill="none" xmlns="http://www.w3.org/2000/svg">
  <path d="M0 21.7014C0 9.71604 9.71604 0 21.7014 0C33.6867 0 43.4028 9.71604 43.4028 21.7014C43.4028 33.6867 33.6867 43.4028 21.7014 43.4028C9.71604 43.4028 0 33.6867 0 21.7014Z" fill="url(#paint0_linear_282_183)"/>
  <g clip-path="url(#clip0_282_183)">
    <path d="M21.6024 15.5774H8.68066V27.8253H21.6024H28.0633V15.5774H21.6024ZM19.8584 23.267H15.2208L15.2604 25.6056L10.6229 22.0383L15.1812 18.5105L15.2208 20.8491H19.898V23.267H19.8584Z" fill="#FFFEF7"/>
    <path d="M34.7223 15.5774H30.8379V27.8253H34.7223V15.5774Z" fill="#FFFEF7"/>
  </g>
  <defs>
    <linearGradient id="paint0_linear_282_183" x1="21.7014" y1="0" x2="21.7014" y2="43.4028" gradientUnits="userSpaceOnUse">
      <stop stop-color="#B32070"/>
      <stop offset="1" stop-color="#FB3179"/>
    </linearGradient>
    <clipPath id="clip0_282_183">
      <rect width="26.0417" height="12.2479" fill="white" transform="translate(8.68066 15.5774)"/>
    </clipPath>
  </defs>
</svg>
