<svg width="27" height="27" viewBox="0 0 27 27" fill="none" xmlns="http://www.w3.org/2000/svg">
<path d="M0 13.0208C0 5.82962 5.82962 0 13.0208 0C20.212 0 26.0417 5.82962 26.0417 13.0208C26.0417 20.212 20.212 26.0417 13.0208 26.0417C5.82962 26.0417 0 20.212 0 13.0208Z" fill="url(#paint0_linear_74_2023)"/>
<path fill-rule="evenodd" clip-rule="evenodd" d="M8.90842 8.20833C9.06499 8.14414 9.19042 8.02151 9.25812 7.86643C9.32582 7.71135 9.33049 7.536 9.27112 7.37754C9.21175 7.21908 9.09302 7.08996 8.94009 7.01754C8.78715 6.94512 8.61203 6.93509 8.45182 6.98958L7.56033 7.32378C7.18816 7.46334 6.86742 7.71313 6.64096 8.03979C6.4145 8.36645 6.2931 8.75442 6.29297 9.1519V11.2882C6.29277 12.3103 6.67225 13.2961 7.35778 14.0543C8.04331 14.8125 8.98603 15.2891 10.003 15.3915C10.1092 16.4438 10.6158 17.4151 11.4179 18.1045C12.22 18.7939 13.2564 19.1487 14.3128 19.0956C15.3691 19.0424 16.3646 18.5853 17.0935 17.8188C17.8223 17.0524 18.2288 16.0351 18.2287 14.9774V14.6615C18.7236 14.5059 19.1464 14.1783 19.4206 13.738C19.6948 13.2977 19.8023 12.7737 19.7236 12.261C19.6449 11.7483 19.3852 11.2807 18.9916 10.9429C18.598 10.6051 18.0964 10.4194 17.5777 10.4194C17.059 10.4194 16.5574 10.6051 16.1638 10.9429C15.7702 11.2807 15.5105 11.7483 15.4318 12.261C15.3531 12.7737 15.4606 13.2977 15.7348 13.738C16.009 14.1783 16.4318 14.5059 16.9266 14.6615V14.9774C16.9275 15.6969 16.6535 16.3895 16.1606 16.9137C15.6677 17.4378 14.9932 17.7538 14.275 17.797C13.5569 17.8403 12.8493 17.6075 12.2971 17.1463C11.7448 16.6851 11.3897 16.0304 11.3043 15.316C12.2217 15.1136 13.0425 14.604 13.6309 13.8716C14.2192 13.1391 14.5398 12.2277 14.5395 11.2882V9.15277C14.5395 8.75514 14.4182 8.36697 14.1917 8.04014C13.9653 7.71331 13.6444 7.46339 13.2721 7.32378L12.3806 6.98958C12.3 6.95651 12.2135 6.93998 12.1263 6.94096C12.0392 6.94194 11.9531 6.96042 11.8732 6.9953C11.7933 7.03018 11.7212 7.08075 11.6613 7.144C11.6013 7.20726 11.5546 7.28192 11.524 7.36355C11.4934 7.44519 11.4796 7.53213 11.4832 7.61923C11.4869 7.70632 11.508 7.7918 11.5453 7.87059C11.5826 7.94937 11.6353 8.01987 11.7004 8.07788C11.7655 8.1359 11.8415 8.18026 11.924 8.20833L12.8147 8.54253C12.9388 8.589 13.0458 8.67224 13.1213 8.78113C13.1968 8.89002 13.2373 9.01937 13.2374 9.1519V11.2882C13.2374 12.0364 12.9402 12.754 12.4111 13.2831C11.882 13.8121 11.1645 14.1094 10.4162 14.1094C9.66801 14.1094 8.95043 13.8121 8.42136 13.2831C7.89228 12.754 7.59505 12.0364 7.59505 11.2882V9.15277C7.59494 9.02009 7.63537 8.89055 7.71092 8.78149C7.78647 8.67243 7.89354 8.58905 8.0178 8.54253L8.90842 8.20833ZM17.5777 13.4583C17.8079 13.4583 18.0287 13.3669 18.1915 13.2041C18.3543 13.0413 18.4457 12.8205 18.4457 12.5903C18.4457 12.36 18.3543 12.1393 18.1915 11.9765C18.0287 11.8137 17.8079 11.7222 17.5777 11.7222C17.3475 11.7222 17.1267 11.8137 16.9639 11.9765C16.8011 12.1393 16.7096 12.36 16.7096 12.5903C16.7096 12.8205 16.8011 13.0413 16.9639 13.2041C17.1267 13.3669 17.3475 13.4583 17.5777 13.4583Z" fill="white"/>
<defs>
<linearGradient id="paint0_linear_74_2023" x1="13.0208" y1="0" x2="13.0208" y2="26.0417" gradientUnits="userSpaceOnUse">
<stop stop-color="#B32070"/>
<stop offset="1" stop-color="#FB3179"/>
</linearGradient>
</defs>
</svg>
