<svg width="27" height="27" viewBox="0 0 27 27" fill="none" xmlns="http://www.w3.org/2000/svg">
<path d="M0 13.0208C0 5.82962 5.82962 0 13.0208 0C20.212 0 26.0417 5.82962 26.0417 13.0208C26.0417 20.212 20.212 26.0417 13.0208 26.0417C5.82962 26.0417 0 20.212 0 13.0208Z" fill="url(#paint0_linear_74_2016)"/>
<path d="M9.25935 15.0466C7.97926 14.5356 7.23389 13.2717 7.23389 11.965C7.23389 10.2694 8.57474 8.59405 9.51572 7.62762C10.0267 7.10215 10.8062 7.10215 11.3178 7.62762C11.6025 7.91986 11.8433 8.27692 12.1529 8.68028" stroke="white" stroke-width="1.30208" stroke-linecap="round"/>
<path d="M10.7061 14.7144C10.7061 12.6565 12.4127 10.623 13.6106 9.4482C14.261 8.81105 15.2529 8.81105 15.9034 9.4482C17.1013 10.623 18.8079 12.6565 18.8079 14.7144C18.8079 16.7323 17.2743 18.8082 14.757 18.8082C12.2396 18.8082 10.7061 16.7323 10.7061 14.7144Z" stroke="white" stroke-width="1.30208"/>
<path d="M16.7825 15.0465C16.7825 16.3254 15.9144 16.7826 15.0464 16.7826" stroke="white" stroke-width="1.30208" stroke-linecap="round" stroke-linejoin="round"/>
<defs>
<linearGradient id="paint0_linear_74_2016" x1="13.0208" y1="0" x2="13.0208" y2="26.0417" gradientUnits="userSpaceOnUse">
<stop stop-color="#B32070"/>
<stop offset="1" stop-color="#FB3179"/>
</linearGradient>
</defs>
</svg>
