<svg width="15" height="16" viewBox="0 0 15 16" fill="none" xmlns="http://www.w3.org/2000/svg">
<path d="M7.296 7.2738C6.8872 10.5658 4.7992 11.1514 4.7992 13.4402C4.7992 14.853 5.9856 15.9994 7.3904 15.9994C8.7952 15.9994 9.9808 14.8522 9.9808 13.4402C9.9808 11.1514 7.8928 10.5658 7.484 7.2738C7.4712 7.1754 7.3088 7.1754 7.296 7.2738ZM2.4968 0.0738C2.088 3.3658 0 3.9506 0 6.2402C0 7.6522 1.1856 8.7994 2.5904 8.7994C3.9952 8.7994 5.1808 7.6522 5.1808 6.2402C5.1808 3.9514 3.0928 3.3658 2.684 0.0738C2.672 -0.0246 2.5088 -0.0246 2.4968 0.0738ZM12.0968 0.0738C11.688 3.3658 9.6 3.9514 9.6 6.2402C9.6 7.6522 10.7856 8.7994 12.1904 8.7994C13.5952 8.7994 14.7808 7.6522 14.7808 6.2402C14.7808 3.9514 12.6928 3.3658 12.284 0.0738C12.2712 -0.0246 12.1088 -0.0246 12.0968 0.0738Z" fill="#0D34F9"/>
</svg>
