<svg width="27" height="27" viewBox="0 0 27 27" fill="none" xmlns="http://www.w3.org/2000/svg">
<path d="M0 13.0208C0 5.82962 5.82962 0 13.0208 0C20.212 0 26.0417 5.82962 26.0417 13.0208C26.0417 20.212 20.212 26.0417 13.0208 26.0417C5.82962 26.0417 0 20.212 0 13.0208Z" fill="url(#paint0_linear_74_2012)"/>
<path fill-rule="evenodd" clip-rule="evenodd" d="M13.0202 6.9447C13.1583 6.94455 13.2928 6.98828 13.4044 7.06957C13.5159 7.15087 13.5987 7.26551 13.6409 7.39696L16.4933 16.311L17.6096 12.8232C17.6516 12.6917 17.7342 12.577 17.8456 12.4955C17.957 12.4141 18.0914 12.3701 18.2294 12.37H19.3145C19.4872 12.37 19.6528 12.4386 19.7749 12.5607C19.897 12.6828 19.9655 12.8484 19.9655 13.0211C19.9655 13.1938 19.897 13.3594 19.7749 13.4814C19.6528 13.6035 19.4872 13.6721 19.3145 13.6721H18.7043L17.1131 18.6452C17.0709 18.7764 16.9882 18.8909 16.8768 18.9721C16.7654 19.0532 16.6312 19.097 16.4933 19.097C16.3555 19.097 16.2212 19.0532 16.1098 18.9721C15.9985 18.8909 15.9157 18.7764 15.8735 18.6452L13.0254 9.74505L11.0376 16.0385C10.9966 16.1681 10.916 16.2817 10.8071 16.3632C10.6983 16.4448 10.5666 16.4902 10.4306 16.493C10.2946 16.4959 10.1612 16.4561 10.0489 16.3793C9.93673 16.3024 9.85141 16.1923 9.80496 16.0645L8.70774 13.0471L8.64697 13.2277C8.60381 13.3573 8.52099 13.47 8.41023 13.5499C8.29946 13.6298 8.16637 13.6729 8.02979 13.673H6.7277C6.55503 13.673 6.38944 13.6044 6.26735 13.4823C6.14525 13.3602 6.07666 13.1946 6.07666 13.022C6.07666 12.8493 6.14525 12.6837 6.26735 12.5616C6.38944 12.4395 6.55503 12.3709 6.7277 12.3709H7.56104L8.06277 10.8631C8.10531 10.7347 8.18679 10.6227 8.2959 10.5427C8.40502 10.4627 8.53634 10.4187 8.67161 10.4168C8.80689 10.4149 8.9394 10.4552 9.05072 10.5321C9.16205 10.6089 9.24666 10.7186 9.29281 10.8457L10.3735 13.8188L12.4004 7.40043C12.4419 7.26848 12.5244 7.15317 12.6358 7.07123C12.7473 6.98929 12.8819 6.94497 13.0202 6.9447Z" fill="white"/>
<defs>
<linearGradient id="paint0_linear_74_2012" x1="13.0208" y1="0" x2="13.0208" y2="26.0417" gradientUnits="userSpaceOnUse">
<stop stop-color="#B32070"/>
<stop offset="1" stop-color="#FB3179"/>
</linearGradient>
</defs>
</svg>
