<svg width="33" height="37" viewBox="0 0 33 37" fill="none" xmlns="http://www.w3.org/2000/svg">
<path fill-rule="evenodd" clip-rule="evenodd" d="M16.4929 1.54789C16.4929 1.13736 16.3298 0.743653 16.0395 0.453367C15.7492 0.163081 15.3555 0 14.945 0C14.5345 0 14.1408 0.163081 13.8505 0.453367C13.5602 0.743653 13.3971 1.13736 13.3971 1.54789V3.73351C13.3971 4.14404 13.5602 4.53775 13.8505 4.82804C14.1408 5.11832 14.5345 5.2814 14.945 5.2814C15.3555 5.2814 15.7492 5.11832 16.0395 4.82804C16.3298 4.53775 16.4929 4.14404 16.4929 3.73351V1.54789ZM28.9147 13.931C28.9147 14.3415 28.7516 14.7353 28.4613 15.0255C28.1711 15.3158 27.7773 15.4789 27.3668 15.4789H25.1758C24.7653 15.4789 24.3715 15.3158 24.0813 15.0255C23.791 14.7353 23.6279 14.3415 23.6279 13.931C23.6279 13.5205 23.791 13.1268 24.0813 12.8365C24.3715 12.5462 24.7653 12.3831 25.1758 12.3831H27.3668C27.7773 12.3831 28.1711 12.5462 28.4613 12.8365C28.7516 13.1268 28.9147 13.5205 28.9147 13.931ZM0.000106812 13.931C0.000106812 14.3415 0.163185 14.7353 0.453472 15.0255C0.743757 15.3158 1.13747 15.4789 1.548 15.4789H3.73981C4.15034 15.4789 4.54405 15.3158 4.83434 15.0255C5.12462 14.7353 5.2877 14.3415 5.2877 13.931C5.2877 13.5205 5.12462 13.1268 4.83434 12.8365C4.54405 12.5462 4.15034 12.3831 3.73981 12.3831H1.548C1.13747 12.3831 0.743757 12.5462 0.453472 12.8365C0.163185 13.1268 0.000106812 13.5205 0.000106812 13.931ZM24.8252 4.08256C24.9694 4.22573 25.0839 4.39603 25.1621 4.58366C25.2402 4.77128 25.2804 4.97252 25.2804 5.17576C25.2804 5.37901 25.2402 5.58024 25.1621 5.76786C25.0839 5.95549 24.9694 6.12579 24.8252 6.26896L23.2757 7.81376C22.6705 8.41743 21.6892 8.41743 21.0832 7.81376C20.9393 7.67045 20.8251 7.50014 20.7472 7.31261C20.6694 7.12508 20.6293 6.92401 20.6293 6.72094C20.6293 6.51788 20.6694 6.31681 20.7472 6.12928C20.8251 5.94175 20.9393 5.77144 21.0832 5.62813L22.6334 4.08256C22.9245 3.79276 23.3185 3.63005 23.7293 3.63005C24.14 3.63005 24.5341 3.79276 24.8252 4.08256ZM4.62985 5.92997C4.48598 5.78666 4.37183 5.61636 4.29394 5.42882C4.21604 5.24129 4.17595 5.04023 4.17595 4.83716C4.17595 4.6341 4.21604 4.43303 4.29394 4.2455C4.37183 4.05796 4.48598 3.88766 4.62985 3.74435C4.92098 3.45431 5.31519 3.29145 5.72614 3.29145C6.1371 3.29145 6.5313 3.45431 6.82244 3.74435L8.37265 5.28914C8.51652 5.43245 8.63067 5.60276 8.70856 5.79029C8.78646 5.97782 8.82655 6.17889 8.82655 6.38196C8.82655 6.58502 8.78646 6.78609 8.70856 6.97362C8.63067 7.16115 8.51652 7.33146 8.37265 7.47477C7.76665 8.07844 6.78606 8.07844 6.18006 7.47477L4.62985 5.92997ZM16.1972 13.9999C21.6419 19.0437 26.7152 24.2082 28.8141 26.3722C29.0339 26.5982 29.0633 26.8753 28.9735 27.0804C28.7878 27.5029 28.5811 27.9332 28.3815 28.2777C28.1818 28.6221 27.9117 29.0152 27.6377 29.3875C27.503 29.5694 27.2422 29.6847 26.9319 29.6073C24.0064 28.8782 16.9952 27.0835 9.89964 24.9079C10.395 23.7269 11.2796 21.8524 12.7973 19.231C14.2624 16.701 15.4186 15.0285 16.1972 13.9991M12.1897 6.69618C12.4439 6.41794 12.7908 6.24197 13.1655 6.20128C13.5401 6.16059 13.9167 6.25796 14.2247 6.47514C14.5327 6.69233 14.7508 7.01439 14.8383 7.38095C14.9257 7.74751 14.8764 8.13338 14.6997 8.46619C21.4616 14.4434 28.4774 21.5776 31.0369 24.216C32.0685 25.2809 32.44 26.8876 31.8077 28.3264C31.6003 28.797 31.3418 29.3434 31.0609 29.8294C30.7792 30.3139 30.434 30.8108 30.1283 31.2248C29.1964 32.4887 27.6207 32.9693 26.1835 32.611C25.6425 32.4763 24.9606 32.3053 24.1635 32.1009L24.0466 32.5382C23.3036 35.3028 20.4563 36.9366 17.6925 36.199C14.9272 35.4599 13.2787 32.6218 14.0225 29.8557L14.1463 29.3921C10.9731 28.4843 7.56775 27.458 4.32491 26.3799C4.1247 26.6993 3.81483 26.9347 3.45344 27.0418C3.09205 27.149 2.70398 27.1206 2.36204 26.962C2.02009 26.8033 1.74779 26.5254 1.5962 26.1803C1.44462 25.8351 1.42417 25.4466 1.53871 25.0874L2.30956 25.332L1.53948 25.0867V25.0859L1.54103 25.0836L1.54181 25.0789L1.54645 25.0666L1.55883 25.0294L1.60063 24.9087C1.63674 24.807 1.69195 24.6605 1.76625 24.4691C1.9164 24.0867 2.15322 23.5202 2.50691 22.7525C3.21507 21.2169 4.39612 18.8719 6.30776 15.5702C8.21941 12.2686 9.66669 10.0775 10.6465 8.69837C11.006 8.18878 11.3797 7.68939 11.7672 7.20079C11.8917 7.04497 12.0195 6.89169 12.1503 6.74107L12.1758 6.71243L12.1851 6.70237L12.1882 6.6985L12.1897 6.69618ZM17.1275 30.2303C18.5733 30.6297 19.9346 30.9965 21.1675 31.3216L21.0568 31.7349C20.9114 32.27 20.5595 32.7256 20.0786 33.0018C19.5976 33.2779 19.0267 33.3519 18.4912 33.2077C18.2266 33.1377 17.9785 33.0161 17.7609 32.8501C17.5433 32.6841 17.3606 32.4768 17.2233 32.2401C17.0859 32.0033 16.9965 31.7419 16.9603 31.4706C16.9241 31.1993 16.9417 30.9235 17.0122 30.6591L17.1275 30.2303Z" fill="url(#paint0_linear_74_2003)"/>
<defs>
<linearGradient id="paint0_linear_74_2003" x1="16.0591" y1="0" x2="16.0591" y2="36.376" gradientUnits="userSpaceOnUse">
<stop stop-color="#ECA321"/>
<stop offset="1" stop-color="#B32070"/>
</linearGradient>
</defs>
</svg>
